<svg width="50" height="50" viewBox="0 0 50 50" fill="none" xmlns="http://www.w3.org/2000/svg">
<rect width="50" height="50" rx="25" fill="#29C740"/>
<g clip-path="url(#clip0_1_575)">
<path d="M29.119 19.8165C28.6922 19.385 27.9969 19.3795 27.5634 19.8044L19.4326 27.8404L15.898 24.1812C15.4764 23.7419 14.7785 23.7274 14.3392 24.149C13.8998 24.5706 13.8854 25.2685 14.307 25.7078C14.3089 25.7098 14.3107 25.7117 14.3127 25.7137L18.6223 30.1799C18.8285 30.3903 19.1104 30.5094 19.4051 30.5106H19.4172C19.7062 30.5097 19.9834 30.3953 20.1889 30.192L29.1091 21.3721C29.5401 20.9447 29.5444 20.2494 29.119 19.8165Z" fill="white"/>
<path d="M25.2372 30.1799C25.4429 30.3898 25.7239 30.5089 26.0177 30.5107H26.0299C26.3189 30.5098 26.5961 30.3953 26.8016 30.1921L35.7218 21.3722C36.1261 20.9169 36.0848 20.2201 35.6296 19.8158C35.2169 19.4492 34.5967 19.4444 34.1783 19.8045L26.0508 27.8405L25.7608 27.5395C25.3393 27.1001 24.6414 27.0856 24.202 27.5072C23.7626 27.9287 23.7482 28.6266 24.1697 29.066C24.1717 29.068 24.1736 29.07 24.1755 29.0719L25.2372 30.1799Z" fill="white"/>
</g>
<defs>
<clipPath id="clip0_1_575">
<rect width="22" height="22" fill="white" transform="translate(14 14)"/>
</clipPath>
</defs>
</svg>
