<svg width="50" height="50" viewBox="0 0 50 50" fill="none" xmlns="http://www.w3.org/2000/svg">
<rect width="50" height="50" rx="25" fill="#29C740"/>
<path d="M38.8984 25.5C38.8984 18.1121 32.8879 12.1016 25.5 12.1016C24.9337 12.1016 24.4746 12.5607 24.4746 13.127C24.4746 13.6932 24.9337 14.1523 25.5 14.1523C31.7571 14.1523 36.8477 19.2429 36.8477 25.5C36.8477 31.7571 31.7571 36.8477 25.5 36.8477C19.2429 36.8477 14.1523 31.7571 14.1523 25.5C14.1523 24.9337 13.6932 24.4746 13.127 24.4746C12.5607 24.4746 12.1016 24.9337 12.1016 25.5C12.1016 32.8879 18.1121 38.8984 25.5 38.8984C32.8879 38.8984 38.8984 32.8879 38.8984 25.5ZM20.7651 13.0434C20.1988 13.0434 19.7397 13.5025 19.7397 14.0688C19.7397 14.6351 20.1988 15.0942 20.7651 15.0942C21.3314 15.0942 21.7905 14.6351 21.7905 14.0688C21.7905 13.5025 21.3314 13.0434 20.7651 13.0434ZM16.751 15.7256C16.1847 15.7256 15.7256 16.1847 15.7256 16.751C15.7256 17.3172 16.1847 17.7763 16.751 17.7763C17.3172 17.7763 17.7763 17.3172 17.7763 16.751C17.7763 16.1847 17.3172 15.7256 16.751 15.7256ZM14.0688 19.7396C13.5025 19.7396 13.0434 20.1987 13.0434 20.765C13.0434 21.3313 13.5025 21.7904 14.0688 21.7904C14.6351 21.7904 15.0942 21.3313 15.0942 20.765C15.0942 20.1987 14.6351 19.7396 14.0688 19.7396Z" fill="url(#paint0_linear_1_580)"/>
<defs>
<linearGradient id="paint0_linear_1_580" x1="25.5" y1="38.8984" x2="25.5" y2="12.1016" gradientUnits="userSpaceOnUse">
<stop stop-color="white"/>
<stop offset="1" stop-color="white"/>
</linearGradient>
</defs>
</svg>
