<svg width="50" height="50" viewBox="0 0 50 50" fill="none" xmlns="http://www.w3.org/2000/svg">
<rect width="50" height="50" rx="25" fill="#E7E7E7"/>
<path d="M29.3335 23.9167H20.6668C20.3795 23.9167 20.104 23.8026 19.9008 23.5994C19.6976 23.3963 19.5835 23.1207 19.5835 22.8334V19.5834C19.5835 18.1468 20.1542 16.7691 21.17 15.7533C22.1858 14.7374 23.5636 14.1667 25.0002 14.1667C26.4368 14.1667 27.8145 14.7374 28.8303 15.7533C29.8461 16.7691 30.4168 18.1468 30.4168 19.5834V22.8334C30.4168 23.1207 30.3027 23.3963 30.0995 23.5994C29.8964 23.8026 29.6208 23.9167 29.3335 23.9167ZM21.7502 21.7501H28.2502V19.5834C28.2502 18.7215 27.9078 17.8948 27.2983 17.2853C26.6888 16.6758 25.8621 16.3334 25.0002 16.3334C24.1382 16.3334 23.3116 16.6758 22.7021 17.2853C22.0926 17.8948 21.7502 18.7215 21.7502 19.5834V21.7501Z" fill="#AAAAAA"/>
<path d="M30.4168 21.75H19.5835C18.7215 21.75 17.8949 22.0924 17.2854 22.7019C16.6759 23.3114 16.3335 24.138 16.3335 25V32.5833C16.3335 33.4453 16.6759 34.2719 17.2854 34.8814C17.8949 35.4909 18.7215 35.8333 19.5835 35.8333H30.4168C31.2788 35.8333 32.1054 35.4909 32.7149 34.8814C33.3244 34.2719 33.6668 33.4453 33.6668 32.5833V25C33.6668 24.138 33.3244 23.3114 32.7149 22.7019C32.1054 22.0924 31.2788 21.75 30.4168 21.75ZM26.0835 28.3692V29.3333C26.0835 29.6207 25.9694 29.8962 25.7662 30.0994C25.563 30.3025 25.2875 30.4167 25.0002 30.4167C24.7128 30.4167 24.4373 30.3025 24.2341 30.0994C24.031 29.8962 23.9168 29.6207 23.9168 29.3333V28.3692C23.6715 28.1498 23.4986 27.8611 23.421 27.5412C23.3434 27.2214 23.3647 26.8856 23.4821 26.5781C23.5996 26.2707 23.8076 26.0062 24.0786 25.8195C24.3497 25.6329 24.6711 25.533 25.0002 25.533C25.3293 25.533 25.6506 25.6329 25.9217 25.8195C26.1927 26.0062 26.4008 26.2707 26.5182 26.5781C26.6356 26.8856 26.6569 27.2214 26.5793 27.5412C26.5017 27.8611 26.3288 28.1498 26.0835 28.3692Z" fill="#AAAAAA"/>
</svg>
