<svg width="18" height="18" viewBox="0 0 18 18" fill="none" xmlns="http://www.w3.org/2000/svg">
<g clip-path="url(#clip0_1_523)">
<path d="M5.25 11.0174C4.9425 11.0174 4.6875 10.7624 4.6875 10.4549V8.04738C4.6875 7.73988 4.9425 7.48486 5.25 7.48486C5.5575 7.48486 5.8125 7.73988 5.8125 8.04738V10.4549C5.8125 10.7699 5.5575 11.0174 5.25 11.0174Z" fill="#666666"/>
<path d="M12.75 11.0174C12.4425 11.0174 12.1875 10.7624 12.1875 10.4549V8.04738C12.1875 7.73988 12.4425 7.48486 12.75 7.48486C13.0575 7.48486 13.3125 7.73988 13.3125 8.04738V10.4549C13.3125 10.7699 13.0575 11.0174 12.75 11.0174Z" fill="#666666"/>
<path d="M13.185 16.3127C13.035 16.3127 12.8925 16.2527 12.7875 16.1477L11.6025 14.9702C11.385 14.7527 11.3775 14.3927 11.6025 14.1752C11.82 13.9577 12.18 13.9502 12.3975 14.1752L13.155 14.9252L15.33 12.3827C15.5325 12.1427 15.885 12.1202 16.125 12.3227C16.3575 12.5252 16.3875 12.8777 16.185 13.1177L13.62 16.1177C13.515 16.2377 13.3725 16.3052 13.215 16.3127C13.2 16.3127 13.1925 16.3127 13.185 16.3127Z" fill="#666666"/>
<path d="M9 10.6875C8.6925 10.6875 8.4375 10.4325 8.4375 10.125V7.875C8.4375 7.5675 8.6925 7.3125 9 7.3125C9.3075 7.3125 9.5625 7.5675 9.5625 7.875V10.125C9.5625 10.4325 9.3075 10.6875 9 10.6875Z" fill="#666666"/>
<path d="M9.75 17.0625H6.75C2.6775 17.0625 0.9375 15.3225 0.9375 11.25V6.75C0.9375 2.6775 2.6775 0.9375 6.75 0.9375H11.25C15.3225 0.9375 17.0625 2.6775 17.0625 6.75V9.75C17.0625 10.0575 16.8075 10.3125 16.5 10.3125C16.1925 10.3125 15.9375 10.0575 15.9375 9.75V6.75C15.9375 3.2925 14.7075 2.0625 11.25 2.0625H6.75C3.2925 2.0625 2.0625 3.2925 2.0625 6.75V11.25C2.0625 14.7075 3.2925 15.9375 6.75 15.9375H9.75C10.0575 15.9375 10.3125 16.1925 10.3125 16.5C10.3125 16.8075 10.0575 17.0625 9.75 17.0625Z" fill="black"/>
<path d="M9.75 17.0625H6.75C2.6775 17.0625 0.9375 15.3225 0.9375 11.25V6.75C0.9375 2.6775 2.6775 0.9375 6.75 0.9375H11.25C15.3225 0.9375 17.0625 2.6775 17.0625 6.75V9.75C17.0625 10.0575 16.8075 10.3125 16.5 10.3125C16.1925 10.3125 15.9375 10.0575 15.9375 9.75V6.75C15.9375 3.2925 14.7075 2.0625 11.25 2.0625H6.75C3.2925 2.0625 2.0625 3.2925 2.0625 6.75V11.25C2.0625 14.7075 3.2925 15.9375 6.75 15.9375H9.75C10.0575 15.9375 10.3125 16.1925 10.3125 16.5C10.3125 16.8075 10.0575 17.0625 9.75 17.0625Z" fill="black"/>
<path d="M9.75 17.0625H6.75C2.6775 17.0625 0.9375 15.3225 0.9375 11.25V6.75C0.9375 2.6775 2.6775 0.9375 6.75 0.9375H11.25C15.3225 0.9375 17.0625 2.6775 17.0625 6.75V9.75C17.0625 10.0575 16.8075 10.3125 16.5 10.3125C16.1925 10.3125 15.9375 10.0575 15.9375 9.75V6.75C15.9375 3.2925 14.7075 2.0625 11.25 2.0625H6.75C3.2925 2.0625 2.0625 3.2925 2.0625 6.75V11.25C2.0625 14.7075 3.2925 15.9375 6.75 15.9375H9.75C10.0575 15.9375 10.3125 16.1925 10.3125 16.5C10.3125 16.8075 10.0575 17.0625 9.75 17.0625Z" fill="black"/>
</g>
<defs>
<clipPath id="clip0_1_523">
<rect width="18" height="18" fill="white"/>
</clipPath>
</defs>
</svg>
