<svg width="38" height="38" viewBox="0 0 38 38" fill="none" xmlns="http://www.w3.org/2000/svg">
<path d="M17.668 0.66087C15.3219 0.901497 13.8695 1.23665 12.082 1.95853C7.09766 3.96087 3.22187 8.07728 1.50312 13.1992C0.884375 15.064 0.609375 16.8171 0.609375 18.9999C0.609375 21.1827 0.884375 22.9359 1.50312 24.8007C3.71172 31.4093 9.36641 36.1273 16.3359 37.1929C17.6852 37.3906 20.2375 37.3906 21.5781 37.1843C25.5312 36.5827 28.8656 34.9413 31.7016 32.1913C36.832 27.2413 38.6109 19.9109 36.3508 13.1046C34.8383 8.54993 31.3578 4.58821 27.0352 2.49994C25.325 1.66634 23.5031 1.09915 21.6641 0.824154C20.7703 0.695248 18.3297 0.592121 17.668 0.66087ZM18.2695 12.3484C18.5102 12.4257 20.0828 13.2851 21.7758 14.2562C24.8695 16.0351 25.3766 16.396 25.875 17.1523C26.1328 17.539 26.3734 18.2351 26.4766 18.871C26.7 20.2804 25.9781 21.9734 24.8008 22.7812C24.1562 23.2281 18.8969 26.2273 18.4414 26.4077C17.8227 26.657 16.6109 26.7171 15.9406 26.5195C14.3508 26.064 13.1391 24.689 12.8898 23.0648C12.8383 22.6695 12.8125 21.1999 12.8297 19.0257C12.8555 15.7257 12.8641 15.5882 13.0531 15.064C13.4055 14.0843 13.9555 13.371 14.7461 12.8554C15.1586 12.589 15.9664 12.2624 16.4219 12.1765C16.8 12.1077 17.8312 12.2023 18.2695 12.3484Z" fill="#D4D4D4"/>
</svg>
