<svg width="18" height="18" viewBox="0 0 18 18" fill="none" xmlns="http://www.w3.org/2000/svg">
<path fill-rule="evenodd" clip-rule="evenodd" d="M8.43766 2.25757C8.43766 1.94691 8.68948 1.69507 9.00016 1.69507C12.3064 1.69507 15.2076 3.9128 16.0611 7.11484C16.9141 10.3075 15.5174 13.6873 12.6486 15.3374C9.78014 16.9948 6.16394 16.5149 3.82422 14.1671C3.60493 13.9471 3.60555 13.5909 3.8256 13.3716C4.04565 13.1523 4.4018 13.1529 4.62107 13.373C6.60125 15.36 9.65972 15.7653 12.0862 14.363L12.0872 14.3625C14.5131 12.9674 15.6962 10.1074 14.9742 7.40527C14.2526 4.69749 11.7988 2.82007 9.00016 2.82007C8.68948 2.82007 8.43766 2.56823 8.43766 2.25757Z" fill="black"/>
<path fill-rule="evenodd" clip-rule="evenodd" d="M1.6875 9C1.6875 8.68932 1.93934 8.4375 2.25 8.4375H2.2575C2.56816 8.4375 2.82 8.68932 2.82 9C2.82 9.31063 2.56816 9.5625 2.2575 9.5625H2.25C1.93934 9.5625 1.6875 9.31063 1.6875 9Z" fill="black"/>
<path fill-rule="evenodd" clip-rule="evenodd" d="M5.8125 2.625C5.8125 2.31434 6.06436 2.0625 6.375 2.0625H6.38251C6.69319 2.0625 6.94501 2.31434 6.94501 2.625C6.94501 2.93566 6.69319 3.1875 6.38251 3.1875H6.375C6.06436 3.1875 5.8125 2.93566 5.8125 2.625Z" fill="black"/>
<path fill-rule="evenodd" clip-rule="evenodd" d="M2.19727 11.5352C2.19727 11.2245 2.44911 10.9727 2.75977 10.9727H2.76727C3.07792 10.9727 3.32977 11.2245 3.32977 11.5352C3.32977 11.8458 3.07792 12.0977 2.76727 12.0977H2.75977C2.44911 12.0977 2.19727 11.8458 2.19727 11.5352Z" fill="black"/>
<path fill-rule="evenodd" clip-rule="evenodd" d="M2.19727 6.39746C2.19727 6.08683 2.44911 5.83496 2.75977 5.83496H2.76727C3.07792 5.83496 3.32977 6.08683 3.32977 6.39746C3.32977 6.70814 3.07792 6.95996 2.76727 6.95996H2.75977C2.44911 6.95996 2.19727 6.70814 2.19727 6.39746Z" fill="black"/>
<path fill-rule="evenodd" clip-rule="evenodd" d="M3.65234 4.21509C3.65234 3.90443 3.90418 3.65259 4.21484 3.65259H4.22235C4.53301 3.65259 4.78483 3.90443 4.78483 4.21509C4.78483 4.52575 4.53301 4.77757 4.22235 4.77757H4.21484C3.90418 4.77757 3.65234 4.52575 3.65234 4.21509Z" fill="black"/>
<path fill-rule="evenodd" clip-rule="evenodd" d="M8.49023 5.73755C8.80087 5.73755 9.05273 5.98937 9.05273 6.30005V9.10395L10.9197 10.9641C11.1398 11.1833 11.1405 11.5395 10.9212 11.7595C10.7019 11.9796 10.3458 11.9803 10.1257 11.761L8.0932 9.73602C7.98727 9.6305 7.92773 9.48708 7.92773 9.33755V6.30005C7.92773 5.98937 8.17955 5.73755 8.49023 5.73755Z" fill="#666666"/>
</svg>
